<svg xmlns="http://www.w3.org/2000/svg" xmlns:xlink="http://www.w3.org/1999/xlink" width="794" zoomAndPan="magnify" viewBox="0 0 595.5 842.249979" height="1123" preserveAspectRatio="xMidYMid meet" version="1.0"><defs><clipPath id="d23588c61e"><rect x="0" width="55" y="0" height="86"/></clipPath></defs><g transform="matrix(1, 0, 0, 1, 269, 0)"><g clip-path="url(#d23588c61e)"><path fill="#ffffff" d="M 33.519531 6.027344 C 35.203125 25.75 34.300781 44.597656 30.816406 62.574219 C 30.746094 62.9375 30.640625 63.289062 30.5 63.632812 C 30.363281 63.972656 30.191406 64.296875 29.988281 64.605469 C 29.785156 64.914062 29.550781 65.199219 29.292969 65.460938 C 29.03125 65.722656 28.75 65.957031 28.441406 66.164062 C 28.136719 66.371094 27.8125 66.546875 27.472656 66.691406 C 27.132812 66.832031 26.78125 66.941406 26.421875 67.015625 C 26.058594 67.089844 25.695312 67.125 25.324219 67.128906 C 24.957031 67.128906 24.589844 67.097656 24.226562 67.027344 C 23.863281 66.957031 23.511719 66.851562 23.171875 66.710938 C 22.828125 66.570312 22.503906 66.398438 22.195312 66.195312 C 21.886719 65.992188 21.601562 65.761719 21.339844 65.5 C 21.078125 65.242188 20.84375 64.957031 20.636719 64.652344 C 20.429688 64.347656 20.257812 64.023438 20.113281 63.683594 C 19.96875 63.34375 19.863281 62.992188 19.789062 62.628906 C 19.714844 62.269531 19.675781 61.902344 19.675781 61.535156 C 19.671875 61.164062 19.707031 60.796875 19.777344 60.4375 C 23.0625 43.484375 23.910156 25.667969 22.316406 6.984375 C 22.285156 6.617188 22.289062 6.25 22.328125 5.882812 C 22.371094 5.515625 22.445312 5.15625 22.558594 4.804688 C 22.671875 4.453125 22.816406 4.117188 22.992188 3.792969 C 23.171875 3.46875 23.378906 3.164062 23.617188 2.882812 C 23.855469 2.601562 24.117188 2.34375 24.40625 2.113281 C 24.695312 1.882812 25.003906 1.683594 25.332031 1.515625 C 25.660156 1.34375 26 1.207031 26.355469 1.105469 C 26.710938 1.003906 27.070312 0.9375 27.4375 0.90625 C 27.808594 0.875 28.175781 0.878906 28.542969 0.917969 C 28.90625 0.960938 29.265625 1.035156 29.621094 1.148438 C 29.972656 1.261719 30.308594 1.40625 30.632812 1.582031 C 30.953125 1.761719 31.257812 1.96875 31.539062 2.207031 C 31.824219 2.445312 32.078125 2.707031 32.308594 2.996094 C 32.539062 3.285156 32.738281 3.59375 32.910156 3.921875 C 33.078125 4.25 33.214844 4.589844 33.316406 4.945312 C 33.421875 5.300781 33.488281 5.660156 33.519531 6.027344 Z M 33.519531 6.027344 " fill-opacity="1" fill-rule="nonzero"/></g></g></svg>