<svg xmlns="http://www.w3.org/2000/svg" xmlns:xlink="http://www.w3.org/1999/xlink" width="794" zoomAndPan="magnify" viewBox="0 0 595.5 842.249979" height="1123" preserveAspectRatio="xMidYMid meet" version="1.0"><defs><clipPath id="2ab382cf84"><rect x="0" width="108" y="0" height="110"/></clipPath></defs><g transform="matrix(1, 0, 0, 1, 31, 291)"><g clip-path="url(#2ab382cf84)"><path fill="#ffffff" d="M 71.390625 79.582031 C 55.753906 67.707031 42.402344 53.839844 31.339844 37.984375 C 31.128906 37.679688 30.949219 37.359375 30.800781 37.019531 C 30.652344 36.683594 30.539062 36.332031 30.460938 35.972656 C 30.382812 35.613281 30.339844 35.25 30.332031 34.878906 C 30.324219 34.511719 30.351562 34.144531 30.417969 33.78125 C 30.480469 33.417969 30.582031 33.0625 30.714844 32.71875 C 30.847656 32.375 31.015625 32.046875 31.214844 31.738281 C 31.414062 31.425781 31.640625 31.136719 31.898438 30.871094 C 32.152344 30.605469 32.433594 30.367188 32.734375 30.15625 C 33.039062 29.945312 33.359375 29.765625 33.695312 29.617188 C 34.035156 29.46875 34.382812 29.355469 34.742188 29.273438 C 35.105469 29.195312 35.46875 29.152344 35.839844 29.144531 C 36.207031 29.136719 36.574219 29.167969 36.9375 29.230469 C 37.300781 29.296875 37.652344 29.394531 38 29.53125 C 38.34375 29.664062 38.667969 29.832031 38.980469 30.027344 C 39.292969 30.226562 39.578125 30.457031 39.847656 30.710938 C 40.113281 30.96875 40.351562 31.246094 40.5625 31.546875 C 50.949219 46.4375 63.496094 59.464844 78.191406 70.628906 C 78.484375 70.851562 78.753906 71.101562 79 71.378906 C 79.246094 71.65625 79.460938 71.953125 79.648438 72.273438 C 79.832031 72.589844 79.984375 72.925781 80.105469 73.273438 C 80.226562 73.621094 80.3125 73.980469 80.363281 74.34375 C 80.410156 74.710938 80.425781 75.078125 80.402344 75.445312 C 80.382812 75.816406 80.324219 76.179688 80.230469 76.535156 C 80.136719 76.890625 80.007812 77.238281 79.847656 77.570312 C 79.683594 77.898438 79.492188 78.214844 79.269531 78.507812 C 79.046875 78.800781 78.796875 79.070312 78.519531 79.316406 C 78.242188 79.558594 77.945312 79.777344 77.625 79.960938 C 77.308594 80.148438 76.972656 80.300781 76.625 80.421875 C 76.277344 80.542969 75.917969 80.628906 75.550781 80.675781 C 75.1875 80.726562 74.820312 80.742188 74.453125 80.71875 C 74.082031 80.695312 73.71875 80.636719 73.363281 80.542969 C 73.007812 80.449219 72.660156 80.324219 72.328125 80.160156 C 71.996094 80 71.683594 79.808594 71.390625 79.582031 Z M 71.390625 79.582031 " fill-opacity="1" fill-rule="nonzero"/></g></g></svg>