<svg xmlns="http://www.w3.org/2000/svg" xmlns:xlink="http://www.w3.org/1999/xlink" width="794" zoomAndPan="magnify" viewBox="0 0 595.5 842.249979" height="1123" preserveAspectRatio="xMidYMid meet" version="1.0"><defs><clipPath id="ffa0c33659"><rect x="0" width="64" y="0" height="111"/></clipPath></defs><g transform="matrix(1, 0, 0, 1, 299, 579)"><g clip-path="url(#ffa0c33659)"><path fill="#ffffff" d="M 32.894531 25.636719 C 37.800781 42.257812 40.589844 61.207031 41.265625 82.484375 C 41.277344 82.851562 41.253906 83.21875 41.191406 83.582031 C 41.132812 83.945312 41.035156 84.300781 40.90625 84.648438 C 40.777344 84.992188 40.613281 85.320312 40.417969 85.636719 C 40.222656 85.949219 40 86.238281 39.746094 86.507812 C 39.492188 86.777344 39.21875 87.019531 38.917969 87.234375 C 38.617188 87.449219 38.296875 87.632812 37.960938 87.785156 C 37.625 87.9375 37.277344 88.054688 36.917969 88.136719 C 36.558594 88.222656 36.195312 88.269531 35.824219 88.28125 C 35.457031 88.292969 35.089844 88.269531 34.726562 88.207031 C 34.359375 88.148438 34.007812 88.050781 33.660156 87.921875 C 33.316406 87.792969 32.988281 87.628906 32.671875 87.433594 C 32.359375 87.238281 32.070312 87.015625 31.800781 86.761719 C 31.53125 86.507812 31.289062 86.230469 31.074219 85.933594 C 30.859375 85.632812 30.675781 85.3125 30.523438 84.976562 C 30.371094 84.640625 30.253906 84.292969 30.171875 83.933594 C 30.085938 83.574219 30.039062 83.210938 30.027344 82.839844 C 29.382812 62.527344 26.742188 44.519531 22.109375 28.820312 C 22.003906 28.46875 21.9375 28.105469 21.902344 27.738281 C 21.871094 27.371094 21.871094 27.003906 21.910156 26.636719 C 21.949219 26.269531 22.023438 25.910156 22.132812 25.558594 C 22.242188 25.203125 22.386719 24.867188 22.5625 24.542969 C 22.738281 24.21875 22.945312 23.914062 23.183594 23.628906 C 23.417969 23.347656 23.679688 23.089844 23.96875 22.855469 C 24.253906 22.625 24.5625 22.421875 24.890625 22.25 C 25.214844 22.078125 25.554688 21.941406 25.910156 21.835938 C 26.265625 21.734375 26.625 21.664062 26.992188 21.628906 C 27.359375 21.597656 27.726562 21.601562 28.09375 21.640625 C 28.460938 21.679688 28.820312 21.753906 29.175781 21.863281 C 29.527344 21.972656 29.863281 22.113281 30.1875 22.292969 C 30.511719 22.46875 30.816406 22.675781 31.101562 22.910156 C 31.382812 23.148438 31.640625 23.410156 31.875 23.695312 C 32.105469 23.984375 32.308594 24.289062 32.480469 24.617188 C 32.652344 24.945312 32.789062 25.285156 32.894531 25.636719 Z M 32.894531 25.636719 " fill-opacity="1" fill-rule="nonzero"/></g></g></svg>