<svg xmlns="http://www.w3.org/2000/svg" xmlns:xlink="http://www.w3.org/1999/xlink" width="794" zoomAndPan="magnify" viewBox="0 0 595.5 842.249979" height="1123" preserveAspectRatio="xMidYMid meet" version="1.0"><defs><clipPath id="6eae845d8a"><rect x="0" width="109" y="0" height="59"/></clipPath></defs><g transform="matrix(1, 0, 0, 1, 276, 598)"><g clip-path="url(#6eae845d8a)"><path fill="#ffffff" d="M 83.679688 31.777344 C 67.070312 34.226562 48.371094 36.460938 27.589844 38.484375 C 27.222656 38.519531 26.855469 38.519531 26.488281 38.480469 C 26.121094 38.445312 25.761719 38.375 25.40625 38.265625 C 25.054688 38.15625 24.714844 38.015625 24.390625 37.84375 C 24.0625 37.667969 23.757812 37.464844 23.472656 37.230469 C 23.1875 36.996094 22.929688 36.734375 22.695312 36.449219 C 22.460938 36.164062 22.257812 35.859375 22.082031 35.53125 C 21.910156 35.207031 21.769531 34.867188 21.664062 34.511719 C 21.554688 34.160156 21.484375 33.800781 21.449219 33.433594 C 21.414062 33.0625 21.414062 32.695312 21.449219 32.328125 C 21.488281 31.960938 21.558594 31.601562 21.667969 31.25 C 21.773438 30.894531 21.914062 30.554688 22.089844 30.230469 C 22.265625 29.90625 22.46875 29.601562 22.703125 29.316406 C 22.9375 29.03125 23.199219 28.769531 23.484375 28.539062 C 23.769531 28.304688 24.074219 28.101562 24.402344 27.925781 C 24.726562 27.753906 25.066406 27.613281 25.417969 27.503906 C 25.773438 27.398438 26.132812 27.328125 26.5 27.292969 C 47.097656 25.289062 65.613281 23.074219 82.039062 20.652344 C 82.40625 20.601562 82.773438 20.582031 83.140625 20.601562 C 83.511719 20.621094 83.875 20.671875 84.230469 20.765625 C 84.589844 20.855469 84.933594 20.976562 85.269531 21.136719 C 85.601562 21.292969 85.917969 21.484375 86.214844 21.703125 C 86.511719 21.921875 86.78125 22.171875 87.03125 22.445312 C 87.277344 22.71875 87.496094 23.011719 87.683594 23.332031 C 87.875 23.648438 88.03125 23.980469 88.15625 24.328125 C 88.28125 24.675781 88.367188 25.03125 88.421875 25.394531 C 88.476562 25.761719 88.492188 26.128906 88.476562 26.496094 C 88.457031 26.867188 88.402344 27.230469 88.3125 27.585938 C 88.222656 27.945312 88.097656 28.292969 87.941406 28.625 C 87.78125 28.957031 87.59375 29.273438 87.371094 29.570312 C 87.152344 29.867188 86.90625 30.136719 86.632812 30.386719 C 86.359375 30.632812 86.0625 30.851562 85.746094 31.042969 C 85.429688 31.230469 85.097656 31.386719 84.75 31.511719 C 84.402344 31.636719 84.046875 31.722656 83.679688 31.777344 Z M 83.679688 31.777344 " fill-opacity="1" fill-rule="nonzero"/></g></g></svg>