<svg xmlns="http://www.w3.org/2000/svg" xmlns:xlink="http://www.w3.org/1999/xlink" width="794" zoomAndPan="magnify" viewBox="0 0 595.5 842.249979" height="1123" preserveAspectRatio="xMidYMid meet" version="1.0"><defs><clipPath id="1139c972fa"><rect x="0" width="111" y="0" height="74"/></clipPath></defs><g transform="matrix(1, 0, 0, 1, 157, 112)"><g clip-path="url(#1139c972fa)"><path fill="#ffffff" d="M 83.898438 34.683594 C 65.878906 42.261719 47.890625 47.125 29.933594 49.277344 C 29.566406 49.320312 29.199219 49.328125 28.832031 49.300781 C 28.460938 49.269531 28.101562 49.207031 27.746094 49.105469 C 27.390625 49.007812 27.046875 48.875 26.71875 48.707031 C 26.390625 48.539062 26.078125 48.34375 25.789062 48.113281 C 25.5 47.886719 25.234375 47.632812 24.992188 47.351562 C 24.753906 47.070312 24.542969 46.769531 24.363281 46.449219 C 24.179688 46.125 24.035156 45.789062 23.917969 45.4375 C 23.804688 45.085938 23.726562 44.730469 23.679688 44.363281 C 23.636719 43.996094 23.628906 43.628906 23.660156 43.261719 C 23.6875 42.890625 23.75 42.53125 23.851562 42.175781 C 23.949219 41.820312 24.082031 41.476562 24.25 41.148438 C 24.417969 40.820312 24.617188 40.507812 24.84375 40.21875 C 25.070312 39.929688 25.324219 39.664062 25.605469 39.421875 C 25.886719 39.183594 26.1875 38.972656 26.511719 38.792969 C 26.832031 38.613281 27.167969 38.464844 27.519531 38.347656 C 27.871094 38.234375 28.230469 38.15625 28.59375 38.113281 C 45.511719 36.085938 62.492188 31.488281 79.539062 24.316406 C 79.878906 24.175781 80.230469 24.066406 80.589844 23.992188 C 80.953125 23.917969 81.316406 23.878906 81.6875 23.878906 C 82.054688 23.875 82.421875 23.910156 82.785156 23.980469 C 83.148438 24.050781 83.5 24.15625 83.839844 24.292969 C 84.183594 24.433594 84.507812 24.605469 84.816406 24.808594 C 85.125 25.011719 85.410156 25.242188 85.671875 25.503906 C 85.933594 25.761719 86.167969 26.046875 86.375 26.351562 C 86.582031 26.65625 86.757812 26.980469 86.898438 27.320312 C 87.042969 27.660156 87.152344 28.011719 87.226562 28.375 C 87.300781 28.734375 87.335938 29.101562 87.339844 29.46875 C 87.34375 29.839844 87.308594 30.203125 87.238281 30.566406 C 87.167969 30.929688 87.0625 31.28125 86.921875 31.625 C 86.785156 31.964844 86.613281 32.289062 86.410156 32.597656 C 86.207031 32.90625 85.972656 33.191406 85.714844 33.453125 C 85.457031 33.714844 85.171875 33.949219 84.867188 34.15625 C 84.5625 34.363281 84.238281 34.539062 83.898438 34.683594 Z M 83.898438 34.683594 " fill-opacity="1" fill-rule="nonzero"/></g></g></svg>