<svg xmlns="http://www.w3.org/2000/svg" xmlns:xlink="http://www.w3.org/1999/xlink" width="794" zoomAndPan="magnify" viewBox="0 0 595.5 842.249979" height="1123" preserveAspectRatio="xMidYMid meet" version="1.0"><defs><clipPath id="61fdb6b5af"><rect x="0" width="77" y="0" height="115"/></clipPath></defs><g transform="matrix(1, 0, 0, 1, 489, 461)"><g clip-path="url(#61fdb6b5af)"><path fill="#000000" d="M 48.785156 28.0625 C 50.585938 49.078125 46.082031 68.144531 35.28125 85.265625 C 35.082031 85.578125 34.855469 85.871094 34.601562 86.136719 C 34.347656 86.40625 34.070312 86.644531 33.769531 86.859375 C 33.46875 87.070312 33.148438 87.253906 32.8125 87.402344 C 32.472656 87.554688 32.125 87.667969 31.765625 87.75 C 31.40625 87.832031 31.039062 87.878906 30.671875 87.886719 C 30.304688 87.898438 29.9375 87.871094 29.574219 87.808594 C 29.207031 87.746094 28.855469 87.648438 28.511719 87.515625 C 28.164062 87.382812 27.835938 87.21875 27.523438 87.023438 C 27.210938 86.824219 26.921875 86.597656 26.65625 86.34375 C 26.386719 86.089844 26.148438 85.8125 25.933594 85.511719 C 25.71875 85.210938 25.539062 84.890625 25.386719 84.554688 C 25.238281 84.214844 25.121094 83.867188 25.042969 83.507812 C 24.960938 83.148438 24.914062 82.785156 24.90625 82.414062 C 24.894531 82.046875 24.921875 81.679688 24.984375 81.316406 C 25.046875 80.949219 25.144531 80.597656 25.277344 80.253906 C 25.410156 79.90625 25.574219 79.578125 25.769531 79.265625 C 35.230469 64.273438 39.167969 47.527344 37.582031 29.019531 C 37.550781 28.652344 37.554688 28.285156 37.59375 27.917969 C 37.636719 27.550781 37.710938 27.191406 37.824219 26.839844 C 37.933594 26.488281 38.082031 26.152344 38.257812 25.828125 C 38.4375 25.503906 38.644531 25.203125 38.882812 24.917969 C 39.121094 24.636719 39.382812 24.378906 39.671875 24.148438 C 39.960938 23.917969 40.269531 23.71875 40.59375 23.550781 C 40.921875 23.378906 41.265625 23.242188 41.617188 23.140625 C 41.972656 23.039062 42.335938 22.972656 42.703125 22.941406 C 43.070312 22.90625 43.4375 22.914062 43.804688 22.953125 C 44.171875 22.996094 44.53125 23.070312 44.882812 23.183594 C 45.234375 23.292969 45.570312 23.4375 45.894531 23.617188 C 46.21875 23.796875 46.523438 24.003906 46.804688 24.242188 C 47.085938 24.480469 47.34375 24.742188 47.574219 25.03125 C 47.804688 25.320312 48.003906 25.625 48.175781 25.953125 C 48.34375 26.28125 48.480469 26.625 48.582031 26.976562 C 48.683594 27.332031 48.753906 27.695312 48.785156 28.0625 Z M 48.785156 28.0625 " fill-opacity="1" fill-rule="nonzero"/></g></g></svg>