<svg xmlns="http://www.w3.org/2000/svg" xmlns:xlink="http://www.w3.org/1999/xlink" width="794" zoomAndPan="magnify" viewBox="0 0 595.5 842.249979" height="1123" preserveAspectRatio="xMidYMid meet" version="1.0"><defs><clipPath id="e36faeb10b"><rect x="0" width="116" y="0" height="77"/></clipPath></defs><g transform="matrix(1, 0, 0, 1, 349, 575)"><g clip-path="url(#e36faeb10b)"><path fill="#000000" d="M 88.378906 34.015625 C 73.367188 41.007812 55.027344 46.46875 33.355469 50.402344 C 32.992188 50.46875 32.625 50.5 32.257812 50.492188 C 31.886719 50.488281 31.523438 50.445312 31.164062 50.367188 C 30.800781 50.289062 30.453125 50.175781 30.113281 50.027344 C 29.773438 49.882812 29.453125 49.703125 29.148438 49.492188 C 28.847656 49.28125 28.566406 49.046875 28.308594 48.78125 C 28.054688 48.515625 27.824219 48.226562 27.625 47.917969 C 27.425781 47.605469 27.257812 47.277344 27.121094 46.9375 C 26.988281 46.59375 26.886719 46.238281 26.820312 45.875 C 26.753906 45.511719 26.722656 45.148438 26.730469 44.777344 C 26.738281 44.410156 26.777344 44.042969 26.855469 43.683594 C 26.933594 43.320312 27.046875 42.972656 27.195312 42.632812 C 27.339844 42.292969 27.519531 41.972656 27.730469 41.671875 C 27.941406 41.367188 28.179688 41.085938 28.445312 40.832031 C 28.707031 40.574219 28.996094 40.34375 29.308594 40.144531 C 29.617188 39.945312 29.945312 39.777344 30.289062 39.640625 C 30.632812 39.507812 30.984375 39.40625 31.347656 39.339844 C 52.070312 35.578125 69.496094 30.40625 83.628906 23.824219 C 83.964844 23.667969 84.3125 23.546875 84.671875 23.460938 C 85.027344 23.371094 85.390625 23.320312 85.761719 23.304688 C 86.128906 23.289062 86.496094 23.308594 86.863281 23.363281 C 87.226562 23.421875 87.582031 23.511719 87.929688 23.636719 C 88.277344 23.765625 88.605469 23.925781 88.921875 24.117188 C 89.238281 24.308594 89.53125 24.527344 89.804688 24.777344 C 90.074219 25.027344 90.320312 25.300781 90.539062 25.597656 C 90.757812 25.894531 90.945312 26.210938 91.101562 26.546875 C 91.257812 26.882812 91.378906 27.226562 91.464844 27.585938 C 91.554688 27.945312 91.605469 28.308594 91.621094 28.679688 C 91.636719 29.046875 91.617188 29.414062 91.558594 29.777344 C 91.503906 30.144531 91.414062 30.5 91.285156 30.847656 C 91.160156 31.191406 91 31.523438 90.808594 31.839844 C 90.617188 32.15625 90.398438 32.449219 90.148438 32.722656 C 89.898438 32.992188 89.625 33.238281 89.328125 33.457031 C 89.027344 33.675781 88.710938 33.859375 88.378906 34.015625 Z M 88.378906 34.015625 " fill-opacity="1" fill-rule="nonzero"/></g></g></svg>