<svg xmlns="http://www.w3.org/2000/svg" xmlns:xlink="http://www.w3.org/1999/xlink" width="794" zoomAndPan="magnify" viewBox="0 0 595.5 842.249979" height="1123" preserveAspectRatio="xMidYMid meet" version="1.0"><defs><clipPath id="f445fd5787"><rect x="0" width="104" y="0" height="50"/></clipPath></defs><g transform="matrix(1, 0, 0, 1, 334, 344)"><g clip-path="url(#f445fd5787)"><path fill="#000000" d="M 23.320312 20.085938 C 42.734375 18.085938 61.847656 18.40625 80.667969 21.050781 C 81.03125 21.105469 81.390625 21.191406 81.738281 21.3125 C 82.085938 21.433594 82.417969 21.589844 82.738281 21.777344 C 83.054688 21.960938 83.351562 22.179688 83.628906 22.425781 C 83.902344 22.671875 84.152344 22.941406 84.375 23.234375 C 84.597656 23.53125 84.789062 23.84375 84.949219 24.175781 C 85.109375 24.507812 85.234375 24.855469 85.328125 25.210938 C 85.417969 25.570312 85.476562 25.933594 85.496094 26.300781 C 85.519531 26.667969 85.503906 27.035156 85.453125 27.402344 C 85.398438 27.765625 85.3125 28.125 85.191406 28.472656 C 85.070312 28.820312 84.914062 29.15625 84.726562 29.472656 C 84.539062 29.792969 84.324219 30.085938 84.078125 30.363281 C 83.832031 30.636719 83.5625 30.886719 83.269531 31.109375 C 82.972656 31.332031 82.660156 31.523438 82.328125 31.683594 C 81.996094 31.84375 81.648438 31.96875 81.292969 32.0625 C 80.933594 32.15625 80.570312 32.210938 80.203125 32.234375 C 79.835938 32.253906 79.46875 32.238281 79.101562 32.1875 C 61.1875 29.667969 42.976562 29.363281 24.472656 31.269531 C 24.105469 31.308594 23.738281 31.308594 23.371094 31.273438 C 23.003906 31.238281 22.640625 31.167969 22.289062 31.0625 C 21.933594 30.957031 21.59375 30.820312 21.269531 30.648438 C 20.941406 30.472656 20.636719 30.273438 20.347656 30.039062 C 20.0625 29.804688 19.800781 29.546875 19.566406 29.261719 C 19.332031 28.976562 19.125 28.675781 18.949219 28.347656 C 18.773438 28.023438 18.632812 27.6875 18.523438 27.332031 C 18.414062 26.980469 18.339844 26.621094 18.304688 26.253906 C 18.265625 25.886719 18.265625 25.519531 18.300781 25.152344 C 18.332031 24.78125 18.402344 24.421875 18.507812 24.070312 C 18.613281 23.714844 18.753906 23.375 18.925781 23.046875 C 19.097656 22.722656 19.300781 22.414062 19.535156 22.128906 C 19.765625 21.84375 20.027344 21.582031 20.308594 21.347656 C 20.59375 21.113281 20.898438 20.90625 21.222656 20.730469 C 21.550781 20.554688 21.886719 20.414062 22.242188 20.304688 C 22.59375 20.195312 22.953125 20.121094 23.320312 20.085938 Z M 23.320312 20.085938 " fill-opacity="1" fill-rule="nonzero"/></g></g></svg>