<svg xmlns="http://www.w3.org/2000/svg" xmlns:xlink="http://www.w3.org/1999/xlink" width="794" zoomAndPan="magnify" viewBox="0 0 595.5 842.249979" height="1123" preserveAspectRatio="xMidYMid meet" version="1.0"><defs><clipPath id="e4d8f20a32"><rect x="0" width="52" y="0" height="107"/></clipPath></defs><g transform="matrix(1, 0, 0, 1, 31, 227)"><g clip-path="url(#e4d8f20a32)"><path fill="#000000" d="M 22.101562 83.363281 C 18.433594 64.074219 17.792969 44.835938 20.183594 25.652344 C 20.230469 25.285156 20.308594 24.925781 20.425781 24.574219 C 20.542969 24.226562 20.691406 23.890625 20.875 23.570312 C 21.054688 23.246094 21.269531 22.949219 21.511719 22.667969 C 21.75 22.390625 22.019531 22.136719 22.308594 21.910156 C 22.601562 21.683594 22.910156 21.484375 23.242188 21.320312 C 23.570312 21.15625 23.914062 21.023438 24.269531 20.925781 C 24.625 20.828125 24.988281 20.765625 25.355469 20.738281 C 25.722656 20.710938 26.089844 20.722656 26.457031 20.765625 C 26.824219 20.8125 27.183594 20.894531 27.53125 21.007812 C 27.882812 21.125 28.21875 21.273438 28.539062 21.457031 C 28.859375 21.640625 29.160156 21.851562 29.441406 22.09375 C 29.71875 22.335938 29.972656 22.601562 30.199219 22.890625 C 30.425781 23.183594 30.621094 23.496094 30.789062 23.824219 C 30.953125 24.152344 31.085938 24.496094 31.183594 24.851562 C 31.28125 25.210938 31.34375 25.570312 31.371094 25.9375 C 31.398438 26.308594 31.386719 26.675781 31.339844 27.039062 C 29.097656 45.058594 29.699219 63.132812 33.148438 81.261719 C 33.21875 81.625 33.25 81.992188 33.246094 82.359375 C 33.242188 82.730469 33.203125 83.09375 33.128906 83.457031 C 33.054688 83.816406 32.945312 84.167969 32.800781 84.507812 C 32.65625 84.847656 32.480469 85.171875 32.273438 85.476562 C 32.066406 85.78125 31.832031 86.0625 31.566406 86.324219 C 31.304688 86.582031 31.019531 86.8125 30.710938 87.015625 C 30.402344 87.21875 30.074219 87.386719 29.734375 87.527344 C 29.390625 87.664062 29.039062 87.769531 28.675781 87.835938 C 28.3125 87.90625 27.949219 87.9375 27.578125 87.9375 C 27.210938 87.933594 26.84375 87.894531 26.480469 87.820312 C 26.121094 87.742188 25.769531 87.632812 25.429688 87.488281 C 25.089844 87.347656 24.769531 87.171875 24.460938 86.960938 C 24.15625 86.753906 23.875 86.519531 23.617188 86.257812 C 23.359375 85.992188 23.128906 85.707031 22.925781 85.398438 C 22.722656 85.089844 22.550781 84.765625 22.414062 84.421875 C 22.273438 84.078125 22.171875 83.726562 22.101562 83.363281 Z M 22.101562 83.363281 " fill-opacity="1" fill-rule="nonzero"/></g></g></svg>