<svg xmlns="http://www.w3.org/2000/svg" xmlns:xlink="http://www.w3.org/1999/xlink" width="794" zoomAndPan="magnify" viewBox="0 0 595.5 842.249979" height="1123" preserveAspectRatio="xMidYMid meet" version="1.0"><defs><clipPath id="7be2091cf3"><rect x="0" width="55" y="0" height="106"/></clipPath></defs><g transform="matrix(1, 0, 0, 1, 306, 659)"><g clip-path="url(#7be2091cf3)"><path fill="#000000" d="M 34.738281 25.351562 C 34.378906 42.300781 32.984375 61.050781 30.554688 81.601562 C 30.511719 81.964844 30.433594 82.324219 30.320312 82.675781 C 30.207031 83.027344 30.058594 83.363281 29.878906 83.6875 C 29.699219 84.007812 29.488281 84.308594 29.25 84.589844 C 29.007812 84.871094 28.746094 85.125 28.453125 85.355469 C 28.164062 85.582031 27.855469 85.78125 27.527344 85.949219 C 27.199219 86.117188 26.855469 86.25 26.5 86.351562 C 26.144531 86.453125 25.785156 86.515625 25.414062 86.546875 C 25.046875 86.574219 24.679688 86.566406 24.3125 86.523438 C 23.945312 86.480469 23.589844 86.402344 23.238281 86.289062 C 22.886719 86.175781 22.550781 86.027344 22.226562 85.847656 C 21.90625 85.667969 21.601562 85.457031 21.324219 85.214844 C 21.042969 84.976562 20.789062 84.710938 20.558594 84.421875 C 20.328125 84.132812 20.132812 83.824219 19.964844 83.492188 C 19.796875 83.164062 19.664062 82.824219 19.5625 82.46875 C 19.460938 82.113281 19.398438 81.75 19.367188 81.382812 C 19.339844 81.015625 19.347656 80.648438 19.390625 80.28125 C 21.773438 60.089844 23.144531 41.703125 23.496094 25.113281 C 23.503906 24.746094 23.546875 24.382812 23.625 24.019531 C 23.707031 23.660156 23.820312 23.3125 23.96875 22.972656 C 24.117188 22.636719 24.296875 22.316406 24.507812 22.011719 C 24.71875 21.710938 24.960938 21.429688 25.226562 21.175781 C 25.492188 20.917969 25.78125 20.691406 26.09375 20.496094 C 26.402344 20.296875 26.730469 20.128906 27.074219 19.996094 C 27.417969 19.863281 27.773438 19.761719 28.136719 19.699219 C 28.5 19.632812 28.867188 19.605469 29.234375 19.613281 C 29.605469 19.621094 29.96875 19.664062 30.328125 19.746094 C 30.691406 19.824219 31.039062 19.9375 31.378906 20.085938 C 31.714844 20.234375 32.035156 20.414062 32.335938 20.625 C 32.640625 20.839844 32.917969 21.078125 33.175781 21.34375 C 33.429688 21.609375 33.65625 21.898438 33.855469 22.210938 C 34.054688 22.523438 34.21875 22.847656 34.355469 23.191406 C 34.488281 23.539062 34.585938 23.890625 34.652344 24.253906 C 34.714844 24.617188 34.746094 24.984375 34.738281 25.351562 Z M 34.738281 25.351562 " fill-opacity="1" fill-rule="nonzero"/></g></g></svg>