<svg xmlns="http://www.w3.org/2000/svg" xmlns:xlink="http://www.w3.org/1999/xlink" width="794" zoomAndPan="magnify" viewBox="0 0 595.5 842.249979" height="1123" preserveAspectRatio="xMidYMid meet" version="1.0"><defs><clipPath id="51c8273d03"><rect x="0" width="89" y="0" height="115"/></clipPath></defs><g transform="matrix(1, 0, 0, 1, 472, 385)"><g clip-path="url(#51c8273d03)"><path fill="#000000" d="M 35.734375 29.121094 C 46.789062 45.75 55.148438 63.046875 60.804688 81.011719 C 60.917969 81.363281 60.992188 81.722656 61.03125 82.089844 C 61.074219 82.457031 61.078125 82.824219 61.042969 83.191406 C 61.011719 83.558594 60.945312 83.921875 60.839844 84.277344 C 60.738281 84.628906 60.601562 84.972656 60.429688 85.296875 C 60.257812 85.625 60.058594 85.933594 59.828125 86.222656 C 59.597656 86.507812 59.339844 86.773438 59.054688 87.007812 C 58.773438 87.246094 58.46875 87.453125 58.144531 87.632812 C 57.824219 87.808594 57.484375 87.953125 57.132812 88.0625 C 56.78125 88.175781 56.421875 88.25 56.054688 88.289062 C 55.6875 88.328125 55.320312 88.332031 54.953125 88.300781 C 54.585938 88.269531 54.222656 88.203125 53.867188 88.097656 C 53.515625 87.996094 53.171875 87.859375 52.847656 87.6875 C 52.519531 87.515625 52.210938 87.316406 51.921875 87.085938 C 51.636719 86.851562 51.371094 86.597656 51.136719 86.3125 C 50.898438 86.03125 50.691406 85.726562 50.515625 85.402344 C 50.335938 85.082031 50.191406 84.742188 50.082031 84.390625 C 44.742188 67.4375 36.839844 51.089844 26.371094 35.347656 C 26.164062 35.039062 25.992188 34.714844 25.851562 34.375 C 25.710938 34.035156 25.605469 33.679688 25.535156 33.320312 C 25.464844 32.957031 25.429688 32.589844 25.429688 32.222656 C 25.429688 31.851562 25.46875 31.488281 25.539062 31.125 C 25.613281 30.765625 25.71875 30.414062 25.863281 30.070312 C 26.003906 29.730469 26.179688 29.40625 26.382812 29.101562 C 26.589844 28.792969 26.824219 28.511719 27.085938 28.25 C 27.347656 27.988281 27.632812 27.757812 27.9375 27.554688 C 28.246094 27.347656 28.570312 27.175781 28.910156 27.035156 C 29.253906 26.894531 29.605469 26.789062 29.96875 26.71875 C 30.328125 26.648438 30.695312 26.613281 31.0625 26.613281 C 31.433594 26.613281 31.800781 26.652344 32.160156 26.722656 C 32.523438 26.796875 32.875 26.902344 33.214844 27.046875 C 33.554688 27.1875 33.878906 27.363281 34.183594 27.566406 C 34.492188 27.773438 34.777344 28.007812 35.035156 28.269531 C 35.296875 28.53125 35.527344 28.816406 35.734375 29.121094 Z M 35.734375 29.121094 " fill-opacity="1" fill-rule="nonzero"/></g></g></svg>