<svg xmlns="http://www.w3.org/2000/svg" xmlns:xlink="http://www.w3.org/1999/xlink" width="794" zoomAndPan="magnify" viewBox="0 0 595.5 842.249979" height="1123" preserveAspectRatio="xMidYMid meet" version="1.0"><defs><clipPath id="3fb18a158b"><rect x="0" width="117" y="0" height="94"/></clipPath></defs><g transform="matrix(1, 0, 0, 1, 405, 341)"><g clip-path="url(#3fb18a158b)"><path fill="#000000" d="M 32.398438 28.871094 C 50.519531 34.066406 67.769531 42.710938 84.148438 54.800781 C 84.445312 55.019531 84.714844 55.265625 84.964844 55.539062 C 85.214844 55.808594 85.433594 56.105469 85.625 56.421875 C 85.8125 56.738281 85.972656 57.070312 86.097656 57.417969 C 86.222656 57.761719 86.3125 58.121094 86.367188 58.484375 C 86.421875 58.851562 86.441406 59.214844 86.421875 59.585938 C 86.40625 59.953125 86.351562 60.316406 86.265625 60.675781 C 86.175781 61.035156 86.050781 61.378906 85.894531 61.714844 C 85.738281 62.046875 85.550781 62.363281 85.332031 62.660156 C 85.113281 62.957031 84.867188 63.230469 84.59375 63.480469 C 84.320312 63.726562 84.023438 63.949219 83.710938 64.136719 C 83.394531 64.328125 83.0625 64.484375 82.714844 64.609375 C 82.367188 64.738281 82.011719 64.828125 81.644531 64.882812 C 81.28125 64.9375 80.914062 64.957031 80.542969 64.9375 C 80.175781 64.921875 79.8125 64.867188 79.453125 64.777344 C 79.097656 64.691406 78.75 64.566406 78.414062 64.410156 C 78.082031 64.253906 77.765625 64.066406 77.46875 63.84375 C 62.179688 52.558594 46.121094 44.503906 29.300781 39.683594 C 28.945312 39.578125 28.601562 39.445312 28.273438 39.277344 C 27.945312 39.105469 27.636719 38.90625 27.347656 38.675781 C 27.058594 38.449219 26.796875 38.191406 26.558594 37.910156 C 26.320312 37.628906 26.109375 37.324219 25.929688 37.003906 C 25.753906 36.679688 25.605469 36.34375 25.496094 35.992188 C 25.382812 35.640625 25.304688 35.28125 25.261719 34.914062 C 25.222656 34.546875 25.214844 34.179688 25.246094 33.8125 C 25.277344 33.445312 25.34375 33.082031 25.445312 32.726562 C 25.546875 32.375 25.679688 32.03125 25.851562 31.703125 C 26.019531 31.375 26.21875 31.066406 26.449219 30.777344 C 26.679688 30.488281 26.933594 30.226562 27.214844 29.988281 C 27.496094 29.75 27.800781 29.539062 28.121094 29.359375 C 28.445312 29.179688 28.78125 29.035156 29.132812 28.921875 C 29.484375 28.808594 29.84375 28.734375 30.210938 28.691406 C 30.578125 28.648438 30.945312 28.644531 31.3125 28.675781 C 31.683594 28.707031 32.042969 28.769531 32.398438 28.871094 Z M 32.398438 28.871094 " fill-opacity="1" fill-rule="nonzero"/></g></g></svg>