<svg xmlns="http://www.w3.org/2000/svg" xmlns:xlink="http://www.w3.org/1999/xlink" width="794" zoomAndPan="magnify" viewBox="0 0 595.5 842.249979" height="1123" preserveAspectRatio="xMidYMid meet" version="1.0"><defs><clipPath id="5e0039bd46"><rect x="0" width="107" y="0" height="88"/></clipPath></defs><g transform="matrix(1, 0, 0, 1, 247, 530)"><g clip-path="url(#5e0039bd46)"><path fill="#000000" d="M 25.472656 42.546875 C 36.917969 32.222656 47.105469 27.867188 56.039062 29.480469 C 65.296875 31.148438 72.375 38.839844 77.277344 52.542969 C 77.402344 52.890625 77.488281 53.246094 77.542969 53.613281 C 77.597656 53.976562 77.617188 54.34375 77.597656 54.714844 C 77.578125 55.082031 77.527344 55.445312 77.4375 55.804688 C 77.347656 56.160156 77.222656 56.507812 77.066406 56.839844 C 76.90625 57.175781 76.71875 57.488281 76.496094 57.785156 C 76.277344 58.082031 76.03125 58.355469 75.757812 58.601562 C 75.484375 58.851562 75.1875 59.070312 74.871094 59.257812 C 74.554688 59.449219 74.222656 59.605469 73.875 59.730469 C 73.527344 59.855469 73.171875 59.945312 72.804688 59.996094 C 72.441406 60.050781 72.074219 60.070312 71.707031 60.050781 C 71.335938 60.035156 70.972656 59.980469 70.617188 59.890625 C 70.257812 59.800781 69.910156 59.675781 69.578125 59.519531 C 69.246094 59.359375 68.929688 59.171875 68.632812 58.953125 C 68.335938 58.730469 68.0625 58.484375 67.816406 58.210938 C 67.570312 57.9375 67.347656 57.640625 67.160156 57.324219 C 66.96875 57.007812 66.8125 56.675781 66.6875 56.328125 C 63.25 46.707031 59.03125 41.445312 54.042969 40.542969 C 48.730469 39.585938 41.71875 43.035156 33.007812 50.894531 C 32.730469 51.140625 32.4375 51.359375 32.121094 51.546875 C 31.800781 51.738281 31.46875 51.894531 31.121094 52.019531 C 30.773438 52.140625 30.417969 52.230469 30.050781 52.28125 C 29.6875 52.335938 29.320312 52.355469 28.953125 52.335938 C 28.582031 52.316406 28.21875 52.261719 27.863281 52.171875 C 27.503906 52.078125 27.160156 51.957031 26.824219 51.796875 C 26.492188 51.636719 26.175781 51.449219 25.882812 51.226562 C 25.585938 51.007812 25.3125 50.761719 25.066406 50.484375 C 24.820312 50.210938 24.601562 49.917969 24.410156 49.597656 C 24.222656 49.28125 24.066406 48.949219 23.941406 48.601562 C 23.820312 48.253906 23.730469 47.898438 23.675781 47.53125 C 23.625 47.167969 23.605469 46.800781 23.625 46.429688 C 23.644531 46.0625 23.699219 45.699219 23.789062 45.339844 C 23.878906 44.984375 24.003906 44.636719 24.164062 44.304688 C 24.320312 43.972656 24.511719 43.65625 24.730469 43.359375 C 24.953125 43.066406 25.199219 42.792969 25.472656 42.546875 Z M 25.472656 42.546875 " fill-opacity="1" fill-rule="nonzero"/></g></g></svg>