<svg xmlns="http://www.w3.org/2000/svg" xmlns:xlink="http://www.w3.org/1999/xlink" width="794" zoomAndPan="magnify" viewBox="0 0 595.5 842.249979" height="1123" preserveAspectRatio="xMidYMid meet" version="1.0"><defs><clipPath id="8a8f05b7e2"><rect x="0" width="115" y="0" height="101"/></clipPath></defs><g transform="matrix(1, 0, 0, 1, 424, 528)"><g clip-path="url(#8a8f05b7e2)"><path fill="#000000" d="M 85.476562 36.707031 C 73.714844 49.015625 57.804688 59.917969 37.742188 69.417969 C 37.410156 69.578125 37.0625 69.699219 36.707031 69.792969 C 36.347656 69.882812 35.984375 69.933594 35.617188 69.953125 C 35.246094 69.972656 34.878906 69.953125 34.515625 69.898438 C 34.148438 69.847656 33.792969 69.757812 33.445312 69.632812 C 33.097656 69.507812 32.765625 69.351562 32.449219 69.160156 C 32.132812 68.972656 31.835938 68.753906 31.5625 68.503906 C 31.289062 68.257812 31.042969 67.984375 30.824219 67.691406 C 30.601562 67.394531 30.414062 67.078125 30.253906 66.746094 C 30.097656 66.410156 29.972656 66.066406 29.882812 65.707031 C 29.792969 65.347656 29.738281 64.984375 29.722656 64.617188 C 29.703125 64.25 29.722656 63.882812 29.773438 63.515625 C 29.828125 63.152344 29.917969 62.792969 30.042969 62.445312 C 30.167969 62.097656 30.324219 61.765625 30.511719 61.449219 C 30.703125 61.132812 30.921875 60.839844 31.167969 60.566406 C 31.417969 60.292969 31.6875 60.042969 31.984375 59.824219 C 32.28125 59.605469 32.597656 59.414062 32.929688 59.257812 C 51.738281 50.347656 66.542969 40.242188 77.347656 28.9375 C 77.605469 28.671875 77.882812 28.433594 78.183594 28.222656 C 78.488281 28.007812 78.804688 27.828125 79.144531 27.679688 C 79.480469 27.53125 79.832031 27.414062 80.191406 27.335938 C 80.550781 27.253906 80.917969 27.210938 81.285156 27.203125 C 81.65625 27.195312 82.019531 27.222656 82.382812 27.285156 C 82.75 27.351562 83.101562 27.449219 83.445312 27.582031 C 83.789062 27.714844 84.117188 27.882812 84.429688 28.078125 C 84.742188 28.277344 85.03125 28.503906 85.296875 28.757812 C 85.5625 29.015625 85.804688 29.292969 86.015625 29.59375 C 86.226562 29.898438 86.40625 30.21875 86.558594 30.554688 C 86.707031 30.894531 86.820312 31.242188 86.902344 31.601562 C 86.980469 31.960938 87.023438 32.328125 87.035156 32.695312 C 87.042969 33.066406 87.015625 33.433594 86.949219 33.796875 C 86.886719 34.160156 86.789062 34.511719 86.65625 34.855469 C 86.519531 35.199219 86.355469 35.527344 86.15625 35.839844 C 85.957031 36.152344 85.730469 36.441406 85.476562 36.707031 Z M 85.476562 36.707031 " fill-opacity="1" fill-rule="nonzero"/></g></g></svg>