<svg xmlns="http://www.w3.org/2000/svg" xmlns:xlink="http://www.w3.org/1999/xlink" width="794" zoomAndPan="magnify" viewBox="0 0 595.5 842.249979" height="1123" preserveAspectRatio="xMidYMid meet" version="1.0"><defs><clipPath id="1be8583848"><rect x="0" width="115" y="0" height="76"/></clipPath></defs><g transform="matrix(1, 0, 0, 1, 93, 347)"><g clip-path="url(#1be8583848)"><path fill="#000000" d="M 85.058594 50.839844 C 65.558594 48.535156 47.019531 43.359375 29.441406 35.304688 C 29.105469 35.152344 28.789062 34.96875 28.492188 34.75 C 28.191406 34.535156 27.914062 34.292969 27.664062 34.019531 C 27.414062 33.75 27.191406 33.457031 26.996094 33.144531 C 26.804688 32.828125 26.644531 32.5 26.515625 32.152344 C 26.386719 31.808594 26.292969 31.453125 26.234375 31.085938 C 26.175781 30.722656 26.152344 30.355469 26.164062 29.988281 C 26.179688 29.617188 26.230469 29.253906 26.3125 28.894531 C 26.398438 28.535156 26.519531 28.1875 26.671875 27.851562 C 26.828125 27.519531 27.011719 27.199219 27.226562 26.902344 C 27.445312 26.601562 27.6875 26.328125 27.957031 26.074219 C 28.226562 25.824219 28.519531 25.601562 28.835938 25.410156 C 29.148438 25.214844 29.480469 25.054688 29.824219 24.925781 C 30.171875 24.796875 30.527344 24.703125 30.890625 24.644531 C 31.253906 24.585938 31.621094 24.5625 31.992188 24.578125 C 32.359375 24.589844 32.722656 24.640625 33.082031 24.726562 C 33.441406 24.808594 33.789062 24.929688 34.125 25.082031 C 50.632812 32.644531 68.050781 37.507812 86.378906 39.671875 C 86.746094 39.714844 87.105469 39.796875 87.457031 39.910156 C 87.808594 40.023438 88.144531 40.171875 88.464844 40.351562 C 88.789062 40.53125 89.089844 40.742188 89.371094 40.980469 C 89.652344 41.21875 89.90625 41.484375 90.132812 41.773438 C 90.363281 42.066406 90.5625 42.375 90.730469 42.703125 C 90.894531 43.03125 91.03125 43.375 91.128906 43.730469 C 91.230469 44.085938 91.296875 44.445312 91.324219 44.8125 C 91.355469 45.183594 91.347656 45.550781 91.304688 45.914062 C 91.261719 46.28125 91.179688 46.640625 91.066406 46.992188 C 90.953125 47.34375 90.804688 47.679688 90.625 48.003906 C 90.445312 48.324219 90.234375 48.625 89.996094 48.90625 C 89.757812 49.1875 89.492188 49.441406 89.203125 49.671875 C 88.910156 49.898438 88.601562 50.097656 88.273438 50.265625 C 87.945312 50.433594 87.601562 50.566406 87.246094 50.667969 C 86.890625 50.765625 86.53125 50.832031 86.164062 50.859375 C 85.792969 50.890625 85.425781 50.882812 85.058594 50.839844 Z M 85.058594 50.839844 " fill-opacity="1" fill-rule="nonzero"/></g></g></svg>