<svg xmlns="http://www.w3.org/2000/svg" xmlns:xlink="http://www.w3.org/1999/xlink" width="794" zoomAndPan="magnify" viewBox="0 0 595.5 842.249979" height="1123" preserveAspectRatio="xMidYMid meet" version="1.0"><defs><clipPath id="bcd7744088"><rect x="0" width="112" y="0" height="77"/></clipPath></defs><g transform="matrix(1, 0, 0, 1, 82, 128)"><g clip-path="url(#bcd7744088)"><path fill="#000000" d="M 27.96875 42.019531 C 45.730469 33.859375 63.550781 28.410156 81.429688 25.675781 C 81.796875 25.621094 82.164062 25.601562 82.53125 25.617188 C 82.902344 25.632812 83.265625 25.6875 83.621094 25.773438 C 83.980469 25.863281 84.328125 25.984375 84.664062 26.140625 C 84.996094 26.296875 85.3125 26.484375 85.609375 26.703125 C 85.90625 26.921875 86.179688 27.167969 86.429688 27.4375 C 86.679688 27.710938 86.898438 28.003906 87.089844 28.320312 C 87.28125 28.636719 87.441406 28.96875 87.566406 29.316406 C 87.691406 29.664062 87.785156 30.019531 87.839844 30.382812 C 87.894531 30.75 87.914062 31.113281 87.898438 31.484375 C 87.882812 31.851562 87.828125 32.214844 87.742188 32.574219 C 87.652344 32.933594 87.53125 33.28125 87.375 33.613281 C 87.21875 33.949219 87.03125 34.265625 86.8125 34.5625 C 86.59375 34.859375 86.347656 35.132812 86.074219 35.382812 C 85.804688 35.632812 85.507812 35.851562 85.195312 36.042969 C 84.878906 36.234375 84.546875 36.390625 84.199219 36.519531 C 83.851562 36.644531 83.496094 36.734375 83.132812 36.789062 C 66.292969 39.367188 49.46875 44.515625 32.664062 52.238281 C 32.332031 52.390625 31.984375 52.511719 31.625 52.597656 C 31.265625 52.683594 30.902344 52.734375 30.53125 52.746094 C 30.164062 52.761719 29.796875 52.738281 29.433594 52.679688 C 29.066406 52.625 28.710938 52.53125 28.367188 52.402344 C 28.019531 52.273438 27.6875 52.113281 27.375 51.917969 C 27.058594 51.726562 26.765625 51.503906 26.496094 51.253906 C 26.226562 51.003906 25.980469 50.726562 25.765625 50.429688 C 25.550781 50.128906 25.363281 49.8125 25.210938 49.476562 C 25.054688 49.140625 24.933594 48.792969 24.851562 48.433594 C 24.765625 48.078125 24.714844 47.710938 24.699219 47.34375 C 24.6875 46.972656 24.707031 46.609375 24.765625 46.242188 C 24.824219 45.878906 24.917969 45.523438 25.046875 45.175781 C 25.175781 44.832031 25.335938 44.5 25.527344 44.1875 C 25.722656 43.871094 25.945312 43.578125 26.195312 43.308594 C 26.445312 43.039062 26.71875 42.792969 27.019531 42.578125 C 27.316406 42.359375 27.636719 42.175781 27.96875 42.019531 Z M 27.96875 42.019531 " fill-opacity="1" fill-rule="nonzero"/></g></g></svg>