<svg xmlns="http://www.w3.org/2000/svg" xmlns:xlink="http://www.w3.org/1999/xlink" width="794" zoomAndPan="magnify" viewBox="0 0 595.5 842.249979" height="1123" preserveAspectRatio="xMidYMid meet" version="1.0"><defs><clipPath id="27042df1db"><rect x="0" width="105" y="0" height="115"/></clipPath></defs><g transform="matrix(1, 0, 0, 1, 24, 151)"><g clip-path="url(#27042df1db)"><path fill="#000000" d="M 31.351562 80.621094 C 38.335938 61.550781 49.644531 45.660156 65.273438 32.941406 C 65.558594 32.707031 65.867188 32.503906 66.191406 32.332031 C 66.519531 32.160156 66.859375 32.019531 67.210938 31.914062 C 67.566406 31.808594 67.925781 31.738281 68.292969 31.703125 C 68.660156 31.667969 69.027344 31.671875 69.394531 31.707031 C 69.761719 31.746094 70.121094 31.820312 70.476562 31.929688 C 70.828125 32.035156 71.167969 32.179688 71.492188 32.355469 C 71.816406 32.53125 72.121094 32.734375 72.40625 32.96875 C 72.691406 33.207031 72.949219 33.464844 73.183594 33.753906 C 73.414062 34.039062 73.617188 34.34375 73.789062 34.671875 C 73.964844 34.996094 74.101562 35.339844 74.207031 35.691406 C 74.3125 36.046875 74.382812 36.40625 74.417969 36.773438 C 74.453125 37.140625 74.453125 37.507812 74.414062 37.875 C 74.375 38.242188 74.304688 38.601562 74.195312 38.957031 C 74.085938 39.308594 73.945312 39.648438 73.769531 39.972656 C 73.59375 40.296875 73.386719 40.601562 73.152344 40.886719 C 72.917969 41.171875 72.65625 41.429688 72.371094 41.664062 C 58.339844 53.082031 48.1875 67.355469 41.910156 84.488281 C 41.78125 84.835938 41.621094 85.164062 41.429688 85.480469 C 41.238281 85.796875 41.015625 86.089844 40.765625 86.359375 C 40.515625 86.632812 40.242188 86.878906 39.945312 87.09375 C 39.644531 87.3125 39.328125 87.5 38.996094 87.65625 C 38.660156 87.808594 38.3125 87.929688 37.953125 88.019531 C 37.59375 88.105469 37.230469 88.15625 36.863281 88.171875 C 36.496094 88.1875 36.128906 88.164062 35.761719 88.109375 C 35.398438 88.050781 35.042969 87.960938 34.695312 87.832031 C 34.347656 87.707031 34.019531 87.546875 33.703125 87.355469 C 33.386719 87.160156 33.09375 86.941406 32.824219 86.691406 C 32.550781 86.441406 32.304688 86.167969 32.089844 85.867188 C 31.871094 85.570312 31.683594 85.253906 31.53125 84.917969 C 31.375 84.585938 31.253906 84.238281 31.164062 83.878906 C 31.078125 83.519531 31.027344 83.15625 31.011719 82.789062 C 30.996094 82.417969 31.019531 82.050781 31.074219 81.6875 C 31.132812 81.320312 31.222656 80.964844 31.351562 80.621094 Z M 31.351562 80.621094 " fill-opacity="1" fill-rule="nonzero"/></g></g></svg>