<svg xmlns="http://www.w3.org/2000/svg" xmlns:xlink="http://www.w3.org/1999/xlink" width="794" zoomAndPan="magnify" viewBox="0 0 595.5 842.249979" height="1123" preserveAspectRatio="xMidYMid meet" version="1.0"><defs><clipPath id="02a1373ae0"><rect x="0" width="113" y="0" height="71"/></clipPath></defs><g transform="matrix(1, 0, 0, 1, 253, 343)"><g clip-path="url(#02a1373ae0)"><path fill="#000000" d="M 26.351562 37.234375 C 43.871094 31.550781 62.355469 27.140625 81.804688 23.996094 C 82.171875 23.9375 82.535156 23.914062 82.90625 23.929688 C 83.273438 23.941406 83.636719 23.992188 83.996094 24.078125 C 84.355469 24.160156 84.703125 24.28125 85.039062 24.433594 C 85.375 24.589844 85.695312 24.773438 85.992188 24.988281 C 86.292969 25.207031 86.566406 25.449219 86.820312 25.71875 C 87.070312 25.988281 87.292969 26.28125 87.488281 26.59375 C 87.679688 26.910156 87.84375 27.238281 87.972656 27.585938 C 88.097656 27.929688 88.195312 28.285156 88.253906 28.652344 C 88.3125 29.015625 88.332031 29.382812 88.320312 29.75 C 88.308594 30.121094 88.257812 30.484375 88.171875 30.84375 C 88.085938 31.203125 87.96875 31.550781 87.816406 31.886719 C 87.660156 32.222656 87.476562 32.539062 87.261719 32.839844 C 87.042969 33.136719 86.800781 33.414062 86.53125 33.664062 C 86.261719 33.914062 85.96875 34.136719 85.652344 34.332031 C 85.339844 34.527344 85.011719 34.6875 84.664062 34.816406 C 84.316406 34.945312 83.960938 35.039062 83.597656 35.097656 C 64.714844 38.148438 46.789062 42.425781 29.820312 47.929688 C 29.472656 48.042969 29.113281 48.121094 28.746094 48.164062 C 28.378906 48.210938 28.011719 48.214844 27.644531 48.1875 C 27.277344 48.15625 26.914062 48.09375 26.558594 47.992188 C 26.203125 47.890625 25.863281 47.757812 25.53125 47.589844 C 25.203125 47.421875 24.894531 47.226562 24.605469 46.996094 C 24.316406 46.765625 24.050781 46.511719 23.808594 46.230469 C 23.570312 45.949219 23.359375 45.648438 23.179688 45.328125 C 23 45.003906 22.851562 44.667969 22.738281 44.316406 C 22.625 43.964844 22.546875 43.609375 22.503906 43.242188 C 22.460938 42.875 22.453125 42.507812 22.484375 42.140625 C 22.511719 41.769531 22.578125 41.410156 22.675781 41.054688 C 22.777344 40.699219 22.910156 40.355469 23.078125 40.027344 C 23.246094 39.699219 23.445312 39.390625 23.671875 39.101562 C 23.902344 38.808594 24.15625 38.546875 24.4375 38.304688 C 24.71875 38.066406 25.019531 37.855469 25.34375 37.675781 C 25.664062 37.496094 26 37.347656 26.351562 37.234375 Z M 26.351562 37.234375 " fill-opacity="1" fill-rule="nonzero"/></g></g></svg>