<svg xmlns="http://www.w3.org/2000/svg" xmlns:xlink="http://www.w3.org/1999/xlink" width="794" zoomAndPan="magnify" viewBox="0 0 595.5 842.249979" height="1123" preserveAspectRatio="xMidYMid meet" version="1.0"><defs><clipPath id="7727ff0b1d"><rect x="0" width="108" y="0" height="55"/></clipPath></defs><g transform="matrix(1, 0, 0, 1, 174, 366)"><g clip-path="url(#7727ff0b1d)"><path fill="#000000" d="M 84.265625 30.449219 C 67.433594 33.613281 48.351562 34.738281 27.027344 33.816406 C 26.65625 33.800781 26.292969 33.75 25.933594 33.664062 C 25.574219 33.574219 25.230469 33.453125 24.894531 33.296875 C 24.558594 33.140625 24.242188 32.953125 23.945312 32.734375 C 23.648438 32.519531 23.375 32.273438 23.125 32 C 22.875 31.730469 22.65625 31.433594 22.464844 31.121094 C 22.269531 30.804688 22.113281 30.472656 21.984375 30.125 C 21.859375 29.777344 21.769531 29.421875 21.710938 29.058594 C 21.65625 28.695312 21.636719 28.328125 21.652344 27.957031 C 21.667969 27.589844 21.71875 27.226562 21.804688 26.867188 C 21.894531 26.507812 22.015625 26.160156 22.171875 25.828125 C 22.328125 25.492188 22.515625 25.175781 22.730469 24.878906 C 22.949219 24.582031 23.195312 24.308594 23.46875 24.058594 C 23.738281 23.808594 24.035156 23.585938 24.347656 23.394531 C 24.664062 23.203125 24.996094 23.042969 25.34375 22.917969 C 25.6875 22.792969 26.046875 22.699219 26.410156 22.644531 C 26.773438 22.585938 27.140625 22.566406 27.511719 22.582031 C 47.976562 23.464844 66.203125 22.40625 82.1875 19.398438 C 82.550781 19.332031 82.917969 19.300781 83.285156 19.304688 C 83.65625 19.308594 84.019531 19.347656 84.382812 19.421875 C 84.742188 19.5 85.09375 19.609375 85.433594 19.753906 C 85.773438 19.898438 86.09375 20.074219 86.398438 20.28125 C 86.703125 20.492188 86.984375 20.726562 87.242188 20.992188 C 87.5 21.253906 87.730469 21.542969 87.933594 21.851562 C 88.136719 22.160156 88.304688 22.484375 88.441406 22.828125 C 88.582031 23.171875 88.683594 23.523438 88.75 23.886719 C 88.820312 24.25 88.851562 24.613281 88.847656 24.984375 C 88.84375 25.351562 88.804688 25.71875 88.730469 26.078125 C 88.652344 26.441406 88.542969 26.789062 88.398438 27.128906 C 88.253906 27.46875 88.078125 27.792969 87.867188 28.097656 C 87.660156 28.402344 87.425781 28.683594 87.160156 28.941406 C 86.894531 29.199219 86.609375 29.429688 86.300781 29.632812 C 85.992188 29.832031 85.664062 30.003906 85.324219 30.140625 C 84.980469 30.277344 84.628906 30.382812 84.265625 30.449219 Z M 84.265625 30.449219 " fill-opacity="1" fill-rule="nonzero"/></g></g></svg>