<svg xmlns="http://www.w3.org/2000/svg" xmlns:xlink="http://www.w3.org/1999/xlink" width="794" zoomAndPan="magnify" viewBox="0 0 595.5 842.249979" height="1123" preserveAspectRatio="xMidYMid meet" version="1.0"><defs><clipPath id="5a3a079fda"><rect x="0" width="94" y="0" height="110"/></clipPath></defs><g transform="matrix(1, 0, 0, 1, 219, 557)"><g clip-path="url(#5a3a079fda)"><path fill="#000000" d="M 62.761719 78.695312 C 47.613281 75.84375 37.976562 70.375 33.847656 62.289062 C 29.570312 53.910156 31.398438 43.621094 39.335938 31.421875 C 39.535156 31.113281 39.765625 30.824219 40.023438 30.5625 C 40.28125 30.296875 40.5625 30.058594 40.867188 29.851562 C 41.171875 29.640625 41.492188 29.464844 41.832031 29.320312 C 42.171875 29.175781 42.523438 29.0625 42.882812 28.988281 C 43.246094 28.910156 43.609375 28.871094 43.980469 28.863281 C 44.347656 28.859375 44.714844 28.890625 45.078125 28.960938 C 45.441406 29.027344 45.792969 29.128906 46.136719 29.265625 C 46.476562 29.402344 46.804688 29.574219 47.113281 29.773438 C 47.421875 29.976562 47.710938 30.203125 47.972656 30.460938 C 48.238281 30.71875 48.476562 31 48.683594 31.304688 C 48.894531 31.609375 49.070312 31.933594 49.214844 32.269531 C 49.359375 32.609375 49.472656 32.960938 49.546875 33.320312 C 49.625 33.683594 49.664062 34.046875 49.671875 34.417969 C 49.675781 34.785156 49.644531 35.152344 49.574219 35.515625 C 49.507812 35.878906 49.40625 36.230469 49.269531 36.574219 C 49.132812 36.917969 48.960938 37.242188 48.761719 37.550781 C 43.191406 46.117188 41.558594 52.660156 43.863281 57.175781 C 46.320312 61.984375 53.3125 65.472656 64.839844 67.644531 C 65.203125 67.710938 65.554688 67.816406 65.898438 67.953125 C 66.242188 68.089844 66.566406 68.261719 66.875 68.460938 C 67.183594 68.664062 67.472656 68.894531 67.734375 69.152344 C 68 69.410156 68.234375 69.691406 68.441406 69.996094 C 68.652344 70.300781 68.828125 70.625 68.972656 70.964844 C 69.117188 71.304688 69.226562 71.652344 69.304688 72.015625 C 69.378906 72.375 69.417969 72.742188 69.421875 73.109375 C 69.425781 73.480469 69.394531 73.84375 69.324219 74.207031 C 69.257812 74.570312 69.15625 74.921875 69.015625 75.265625 C 68.878906 75.609375 68.710938 75.933594 68.507812 76.242188 C 68.304688 76.550781 68.074219 76.839844 67.816406 77.101562 C 67.558594 77.367188 67.277344 77.601562 66.972656 77.8125 C 66.667969 78.019531 66.34375 78.195312 66.007812 78.339844 C 65.667969 78.484375 65.316406 78.59375 64.953125 78.671875 C 64.59375 78.746094 64.226562 78.785156 63.859375 78.789062 C 63.488281 78.792969 63.125 78.761719 62.761719 78.695312 Z M 62.761719 78.695312 " fill-opacity="1" fill-rule="nonzero"/></g></g></svg>