<svg xmlns="http://www.w3.org/2000/svg" xmlns:xlink="http://www.w3.org/1999/xlink" width="794" zoomAndPan="magnify" viewBox="0 0 595.5 842.249979" height="1123" preserveAspectRatio="xMidYMid meet" version="1.0"><defs><clipPath id="310c0419bf"><rect x="0" width="103" y="0" height="114"/></clipPath></defs><g transform="matrix(1, 0, 0, 1, 223, 51)"><g clip-path="url(#310c0419bf)"><path fill="#000000" d="M 71.550781 34.707031 C 64.066406 55.484375 52.800781 71.480469 37.746094 82.699219 C 37.449219 82.917969 37.136719 83.109375 36.804688 83.265625 C 36.46875 83.425781 36.125 83.550781 35.765625 83.640625 C 35.40625 83.730469 35.042969 83.785156 34.675781 83.804688 C 34.308594 83.824219 33.941406 83.804688 33.574219 83.753906 C 33.210938 83.699219 32.851562 83.609375 32.503906 83.488281 C 32.15625 83.363281 31.824219 83.207031 31.507812 83.019531 C 31.191406 82.828125 30.894531 82.609375 30.621094 82.363281 C 30.347656 82.117188 30.101562 81.84375 29.878906 81.546875 C 29.660156 81.253906 29.46875 80.9375 29.3125 80.605469 C 29.152344 80.269531 29.027344 79.925781 28.9375 79.566406 C 28.847656 79.210938 28.792969 78.847656 28.773438 78.476562 C 28.753906 78.109375 28.769531 77.742188 28.824219 77.375 C 28.878906 77.011719 28.964844 76.65625 29.089844 76.308594 C 29.214844 75.960938 29.371094 75.625 29.558594 75.308594 C 29.746094 74.992188 29.964844 74.695312 30.214844 74.421875 C 30.460938 74.148438 30.730469 73.902344 31.027344 73.679688 C 44.273438 63.8125 54.253906 49.550781 60.96875 30.898438 C 61.09375 30.550781 61.253906 30.21875 61.445312 29.902344 C 61.632812 29.585938 61.855469 29.289062 62.101562 29.015625 C 62.351562 28.746094 62.625 28.5 62.921875 28.277344 C 63.21875 28.058594 63.53125 27.871094 63.867188 27.714844 C 64.199219 27.558594 64.546875 27.433594 64.90625 27.34375 C 65.261719 27.257812 65.625 27.203125 65.996094 27.183594 C 66.363281 27.167969 66.730469 27.1875 67.097656 27.242188 C 67.460938 27.296875 67.816406 27.386719 68.164062 27.511719 C 68.511719 27.636719 68.84375 27.792969 69.160156 27.984375 C 69.476562 28.175781 69.769531 28.394531 70.042969 28.644531 C 70.316406 28.890625 70.5625 29.164062 70.78125 29.460938 C 71 29.757812 71.191406 30.074219 71.347656 30.40625 C 71.503906 30.742188 71.628906 31.089844 71.714844 31.445312 C 71.804688 31.804688 71.859375 32.167969 71.875 32.535156 C 71.894531 32.90625 71.875 33.273438 71.820312 33.636719 C 71.765625 34.003906 71.675781 34.359375 71.550781 34.707031 Z M 71.550781 34.707031 " fill-opacity="1" fill-rule="nonzero"/></g></g></svg>